<?xml version="1.0" encoding="UTF-8"?>
<svg width="612px" height="612px" viewBox="0 0 612 612" version="1.1" xmlns="http://www.w3.org/2000/svg" xmlns:xlink="http://www.w3.org/1999/xlink">
    <!-- Generator: Sketch 44.1 (41455) - http://www.bohemiancoding.com/sketch -->
    <title>hz</title>
    <desc>Created with Sketch.</desc>
    <defs></defs>
    <g id="Page-1" stroke="none" stroke-width="1" fill="none" fill-rule="evenodd">
        <g id="Desktop-HD" transform="translate(-414.000000, -206.000000)">
            <g id="hz" transform="translate(414.000000, 206.000000)">
                <g id="Group-2">
                    <rect id="Rectangle-10" fill="#07A9DA" x="0" y="0" width="612" height="612" rx="92"></rect>
                    <g id="Group" transform="translate(91.000000, 158.000000)" fill="#FFFFFF">
                        <path d="M192.869219,23.4588252 L192.869219,22.0513226 C206.730895,22.0513226 223.446195,22.0852985 243.015621,22.1532513 C262.585046,22.2212041 282.222127,22.25518 301.927451,22.25518 C325.166144,22.25518 345.856424,22.2212041 363.998913,22.1532513 C382.141401,22.0852985 396.308637,22.0513226 406.501046,22.0513226 L425.254985,60.9880902 C416.557463,71.1810122 399.876137,91.2267916 375.210507,121.12603 C350.544877,151.025268 318.303373,189.893694 278.485027,237.732475 L278.688875,238.751762 C286.571004,238.751762 295.845958,238.819714 306.514012,238.955619 C317.182067,239.091525 328.087782,239.159477 339.231482,239.159477 C359.888098,239.159477 378.981592,239.057549 396.512535,238.853691 C414.043479,238.649832 425.458806,238.547905 430.758859,238.547905 L430.758859,294.404838 C407.927862,294.268933 385.402976,294.167005 363.183524,294.099052 C340.964072,294.031099 321.632759,293.997123 305.189006,293.997123 C280.727224,293.997123 259.425408,294.065075 241.28292,294.200981 C223.140432,294.336886 209.041144,294.404838 198.984634,294.404838 L181.24993,254.856498 C203.537332,229.578052 227.489134,201.276129 253.106056,169.949882 C278.722977,138.623635 303.558108,107.739544 327.612194,77.2966839 L327.408347,76.6851117 C317.080039,76.549206 307.227524,76.4812542 297.850508,76.4812542 L274.00039,76.4812542 C255.789952,76.4812542 239.006703,76.549206 223.65014,76.6851117 C208.293577,76.8210173 198.033373,76.8889691 192.869219,76.8889691 L192.869219,32.9804232 C192.856285,32.9803923 192.843353,32.9803614 192.830423,32.9803306 C192.824602,29.8249359 192.821691,26.6511016 192.821691,23.4588252 L192.869219,23.4588252 Z M193.380695,218.511749 C193.41572,207.893485 193.433233,196.218553 193.433233,183.486901 C188.812674,183.486901 179.028108,183.452925 164.079241,183.384973 C149.130374,183.31702 136.967615,183.283044 127.590599,183.283044 C117.262291,183.283044 105.541196,183.31702 92.426963,183.384973 C79.3127299,183.452925 70.8531572,183.486901 67.0479911,183.486901 C67.0479911,212.027083 67.1159394,235.606356 67.2518382,254.225427 C67.387737,272.844498 67.5236338,286.910519 67.6595326,296.423913 L0.186121324,296.423913 C0.322020112,286.638708 0.49189105,271.859193 0.695739233,252.084924 C0.899587416,232.310655 1.00150998,197.825119 1.00150998,148.627282 C1.00150998,133.134041 0.899587416,114.379345 0.695739233,92.3626337 C0.49189105,70.3459221 0.322020112,47.3782156 0.186121324,23.4588252 L67.6595326,23.4588252 C67.6595326,43.0292355 67.55761,61.2403164 67.3537618,78.0926142 C67.1499136,94.944912 67.0479911,111.52515 67.0479911,127.833825 C70.8531572,127.833825 78.5313235,127.867801 90.0827206,127.935754 C101.634118,128.003707 114.204567,128.037683 127.794446,128.037683 C139.209944,128.037683 151.950264,128.003707 166.015789,127.935754 C180.081314,127.867801 189.22037,127.833825 193.433233,127.833825 C193.433233,115.128559 193.364691,101.715152 193.227607,87.5933294 C193.86013,87.5878137 194.501808,87.5821759 195.152639,87.576416 C210.509202,87.4405104 227.292451,87.3725586 245.502889,87.3725586 L259.736578,87.3725586 C259.717886,90.5084127 259.700213,93.6667288 259.683561,96.847497 C259.603373,112.164247 259.546842,125.824746 259.51397,137.829124 C248.044694,152.072705 236.40958,166.410028 224.608554,180.841187 C213.908789,193.925642 203.49952,206.482476 193.380695,218.511749 Z" id="Combined-Shape"></path>
                    </g>
                </g>
            </g>
        </g>
    </g>
</svg>