<?xml version="1.0" encoding="iso-8859-1"?>
<!-- Generator: Adobe Illustrator 19.0.0, SVG Export Plug-In . SVG Version: 6.00 Build 0)  -->
<svg version="1.1" id="Layer_1" xmlns="http://www.w3.org/2000/svg" xmlns:xlink="http://www.w3.org/1999/xlink" x="0px" y="0px"
	 viewBox="0 0 512 512" style="enable-background:new 0 0 512 512;" xml:space="preserve">
<path style="fill:#E4EAF8;" d="M256,512c93.82-26.483,162.051-97.103,179.109-132.414c30.11-62.328,46.77-225.854,50.408-265.078
	c-33.505-22.145-59.906-54.742-74.931-93.374C367.908,7.91,314.305,0,256,0S144.09,7.91,101.414,21.133
	C86.39,59.766,59.988,92.362,26.483,114.507c3.638,39.224,20.298,202.751,50.408,265.079C93.949,414.897,162.18,485.517,256,512z"/>
<g>
	<path style="fill:#D5DCED;" d="M101.414,21.133c-15.025,38.633-41.426,71.229-74.931,93.374
		c3.638,39.224,20.297,202.751,50.408,265.079C93.949,414.897,162.18,485.517,256,512V0C197.695,0,144.09,7.91,101.414,21.133z"/>
	<path style="fill:#D5DCED;" d="M256,35.31c-42.642,0-84.402,4.563-120.766,13.195l-7.864,1.867l-3.725,7.174
		c-13.461,25.92-31.338,48.706-53.132,67.725l-6.926,6.045l0.981,9.141c4.287,39.944,20.138,174.13,44.119,223.769
		c11.998,24.836,65.809,82.275,141.454,108.892l5.86,2.062l5.86-2.062c75.646-26.616,129.457-84.055,141.455-108.893
		c23.98-49.64,39.831-183.826,44.118-223.768l0.981-9.141l-6.926-6.045c-21.794-19.019-39.671-41.805-53.132-67.725l-3.725-7.174
		l-7.864-1.867C340.402,39.873,298.642,35.31,256,35.31L256,35.31z"/>
</g>
<path style="fill:#AFB9D2;" d="M135.234,48.505l-7.864,1.867l-3.725,7.174c-13.461,25.92-31.338,48.706-53.132,67.725l-6.926,6.046
	l0.981,9.141c4.287,39.944,20.138,174.13,44.119,223.769c11.998,24.836,65.809,82.275,141.454,108.892l5.86,2.062V35.31
	C213.358,35.31,171.598,39.873,135.234,48.505z"/>
<path style="fill:#00C3FF;" d="M256,52.966c41.361,0,81.919,4.463,116.687,12.717c14.458,27.839,33.789,52.467,57.192,72.89
	c-9.372,87.317-25.195,182.231-42.461,217.973c-9.777,20.238-60.31,74.899-131.418,99.918
	c-71.108-25.02-121.641-79.68-131.417-99.917c-17.267-35.742-33.09-130.656-42.462-217.973c23.403-20.424,42.733-45.05,57.192-72.89
	C174.081,57.429,214.639,52.966,256,52.966"/>
<path style="fill:#00AAF0;" d="M139.311,65.683c-14.458,27.839-33.789,52.467-57.192,72.89
	c9.372,87.318,25.195,182.231,42.462,217.973c9.777,20.237,60.309,74.898,131.417,99.917L256,52.966
	C214.639,52.966,174.081,57.429,139.311,65.683z"/>
<g>
</g>
<g>
</g>
<g>
</g>
<g>
</g>
<g>
</g>
<g>
</g>
<g>
</g>
<g>
</g>
<g>
</g>
<g>
</g>
<g>
</g>
<g>
</g>
<g>
</g>
<g>
</g>
<g>
</g>
</svg>
